<?xml version="1.0"?>
<!-- Generated by SVGo -->
<svg width="1099" height="920"
     xmlns="http://www.w3.org/2000/svg"
     xmlns:xlink="http://www.w3.org/1999/xlink">
<polygon points="1099,684 1092,725 1035,725 1055,747 1021,811 1002,828 915,831 864,854 782,846 639,820 616,785 518,803 506,822 445,807 394,805 349,786 364,762 361,744 391,739 441,766 456,740 544,744 615,726 663,729 694,750 704,733 690,668 725,655 761,609 835,641 891,600 926,593 1004,623 1051,618 1097,637 1089,650 1099,684" stroke="black" stroke-width="2" fill="white" fill-opacity="0" />
<polygon points="813,121 836,172 809,199 845,234 870,288 862,322 903,386 858,396 832,385 807,404 735,423 698,448 625,470 643,500 653,542 704,566 761,609 725,655 690,668 704,733 694,750 663,729 615,726 544,744 456,740 441,766 391,739 361,744 253,714 233,735 148,735 161,663 211,595 67,576 20,550 25,506 5,484 17,416 0,312 60,311 85,274 110,182 92,148 111,127 195,122 213,144 281,95 258,57 254,0 329,14 393,-2 395,37 496,60 495,96 597,77 653,50 766,89 813,121" stroke="black" stroke-width="2" fill="white" fill-opacity="0" />
<polygon points="361,744 364,762 349,786 394,805 445,807 437,848 393,865 319,853 298,893 250,896 233,880 177,914 129,919 85,898 51,854 3,869 5,824 78,768 75,743 120,752 148,735 233,735 253,714 361,744" stroke="black" stroke-width="2" fill="white" fill-opacity="0" />
<circle cx="148" cy="805" r="20" fill="red" />
<circle cx="15" cy="876" r="20" fill="red" />
<circle cx="741" cy="244" r="20" fill="red" />
<circle cx="1038" cy="676" r="20" fill="red" />
</svg>
